<svg width="655" height="236" viewBox="0 0 655 236" fill="none" xmlns="http://www.w3.org/2000/svg">
<path d="M543.338 150H437V233.209H543.338V150Z" fill="#1C498F"/>
<path d="M543.338 184.448H533.856V158.387H494.5V169.413H461.294V187.455H437V205.496H466.213V233.209H482.202V196.475H505.568V214.517H522.787V202.49H543.338V184.448Z" fill="#3368A5"/>
<path d="M539.082 195.562H522.787V208.592H539.082V195.562Z" fill="#5781BA"/>
<path d="M510.386 168.561H494.09V181.592H510.386V168.561Z" fill="#5781BA"/>
<path d="M467.751 187.104H451.455V200.134H467.751V187.104Z" fill="#5781BA"/>
<path d="M437 177.58H543.338" stroke="#211E59" stroke-width="5.36285" stroke-miterlimit="10"/>
<path d="M437 210.558H543.338" stroke="#211E59" stroke-width="5.36285" stroke-miterlimit="10"/>
<path d="M491.967 150V177.58" stroke="#211E59" stroke-width="5.36285" stroke-miterlimit="10"/>
<path d="M491.967 209.209V233.209" stroke="#211E59" stroke-width="5.36285" stroke-miterlimit="10"/>
<path d="M457.805 178.03V209.209" stroke="#211E59" stroke-width="5.36285" stroke-miterlimit="10"/>
<path d="M523.852 178.03V209.209" stroke="#211E59" stroke-width="5.36285" stroke-miterlimit="10"/>
<path d="M543.338 150H437V233.209H543.338V150Z" stroke="#211E59" stroke-width="5.36285" stroke-miterlimit="10"/>
<path d="M652 150H545.66V233.209H652V150Z" fill="#1C498F"/>
<path d="M652 184.448H642.517V158.387H603.161V169.413H569.955V187.455H545.66V205.496H574.875V233.209H590.863V196.475H614.23V214.517H631.448V202.49H652V184.448Z" fill="#3368A5"/>
<path d="M647.743 195.562H631.448V208.592H647.743V195.562Z" fill="#5781BA"/>
<path d="M619.047 168.561H602.751V181.592H619.047V168.561Z" fill="#5781BA"/>
<path d="M576.412 187.104H560.117V200.134H576.412V187.104Z" fill="#5781BA"/>
<path d="M545.66 177.58H652" stroke="#211E59" stroke-width="5.36285" stroke-miterlimit="10"/>
<path d="M545.66 210.558H652" stroke="#211E59" stroke-width="5.36285" stroke-miterlimit="10"/>
<path d="M600.629 150V177.58" stroke="#211E59" stroke-width="5.36285" stroke-miterlimit="10"/>
<path d="M600.629 209.209V233.209" stroke="#211E59" stroke-width="5.36285" stroke-miterlimit="10"/>
<path d="M566.466 178.03V209.209" stroke="#211E59" stroke-width="5.36285" stroke-miterlimit="10"/>
<path d="M632.512 178.03V209.209" stroke="#211E59" stroke-width="5.36285" stroke-miterlimit="10"/>
<path d="M652 150H545.66V233.209H652V150Z" stroke="#211E59" stroke-width="5.36285" stroke-miterlimit="10"/>
<path d="M326.338 150H220V233.209H326.338V150Z" fill="#1C498F"/>
<path d="M326.338 184.448H316.856V158.387H277.5V169.413H244.294V187.455H220V205.496H249.213V233.209H265.202V196.475H288.568V214.517H305.787V202.49H326.338V184.448Z" fill="#3368A5"/>
<path d="M322.082 195.562H305.787V208.592H322.082V195.562Z" fill="#5781BA"/>
<path d="M293.386 168.561H277.09V181.592H293.386V168.561Z" fill="#5781BA"/>
<path d="M250.751 187.104H234.455V200.134H250.751V187.104Z" fill="#5781BA"/>
<path d="M220 177.58H326.338" stroke="#211E59" stroke-width="5.36285" stroke-miterlimit="10"/>
<path d="M220 210.558H326.338" stroke="#211E59" stroke-width="5.36285" stroke-miterlimit="10"/>
<path d="M274.967 150V177.58" stroke="#211E59" stroke-width="5.36285" stroke-miterlimit="10"/>
<path d="M274.967 209.209V233.209" stroke="#211E59" stroke-width="5.36285" stroke-miterlimit="10"/>
<path d="M240.805 178.03V209.209" stroke="#211E59" stroke-width="5.36285" stroke-miterlimit="10"/>
<path d="M306.852 178.03V209.209" stroke="#211E59" stroke-width="5.36285" stroke-miterlimit="10"/>
<path d="M326.338 150H220V233.209H326.338V150Z" stroke="#211E59" stroke-width="5.36285" stroke-miterlimit="10"/>
<path d="M435 150H328.66V233.209H435V150Z" fill="#1C498F"/>
<path d="M435 184.448H425.517V158.387H386.161V169.413H352.955V187.455H328.66V205.496H357.875V233.209H373.863V196.475H397.23V214.517H414.448V202.49H435V184.448Z" fill="#3368A5"/>
<path d="M430.743 195.562H414.448V208.592H430.743V195.562Z" fill="#5781BA"/>
<path d="M402.047 168.561H385.751V181.592H402.047V168.561Z" fill="#5781BA"/>
<path d="M359.412 187.104H343.117V200.134H359.412V187.104Z" fill="#5781BA"/>
<path d="M328.66 177.58H435" stroke="#211E59" stroke-width="5.36285" stroke-miterlimit="10"/>
<path d="M328.66 210.558H435" stroke="#211E59" stroke-width="5.36285" stroke-miterlimit="10"/>
<path d="M383.629 150V177.58" stroke="#211E59" stroke-width="5.36285" stroke-miterlimit="10"/>
<path d="M383.629 209.209V233.209" stroke="#211E59" stroke-width="5.36285" stroke-miterlimit="10"/>
<path d="M349.466 178.03V209.209" stroke="#211E59" stroke-width="5.36285" stroke-miterlimit="10"/>
<path d="M415.512 178.03V209.209" stroke="#211E59" stroke-width="5.36285" stroke-miterlimit="10"/>
<path d="M435 150H328.66V233.209H435V150Z" stroke="#211E59" stroke-width="5.36285" stroke-miterlimit="10"/>
<path d="M109.338 150H3V233.209H109.338V150Z" fill="#1C498F"/>
<path d="M109.338 184.449H99.8555V158.387H60.4999V169.413H27.294V187.455H3V205.497H32.2131V233.209H48.2018V196.475H71.5683V214.517H88.7871V202.49H109.338V184.449Z" fill="#3368A5"/>
<path d="M105.082 195.562H88.7871V208.592H105.082V195.562Z" fill="#5781BA"/>
<path d="M76.3855 168.561H60.0898V181.592H76.3855V168.561Z" fill="#5781BA"/>
<path d="M33.7513 187.104H17.4546V200.134H33.7513V187.104Z" fill="#5781BA"/>
<path d="M3 177.58H109.338" stroke="#211E59" stroke-width="5.36285" stroke-miterlimit="10"/>
<path d="M3 210.558H109.338" stroke="#211E59" stroke-width="5.36285" stroke-miterlimit="10"/>
<path d="M57.9673 150V177.58" stroke="#211E59" stroke-width="5.36285" stroke-miterlimit="10"/>
<path d="M57.9673 209.209V233.209" stroke="#211E59" stroke-width="5.36285" stroke-miterlimit="10"/>
<path d="M23.8047 178.03V209.209" stroke="#211E59" stroke-width="5.36285" stroke-miterlimit="10"/>
<path d="M89.8516 178.03V209.209" stroke="#211E59" stroke-width="5.36285" stroke-miterlimit="10"/>
<path d="M109.338 150H3V233.209H109.338V150Z" stroke="#211E59" stroke-width="5.36285" stroke-miterlimit="10"/>
<path d="M218 150H111.66V233.209H218V150Z" fill="#1C498F"/>
<path d="M218 184.449H208.517V158.387H169.161V169.413H135.955V187.455H111.66V205.497H140.875V233.209H156.863V196.475H180.23V214.517H197.448V202.49H218V184.449Z" fill="#3368A5"/>
<path d="M213.743 195.562H197.448V208.592H213.743V195.562Z" fill="#5781BA"/>
<path d="M185.047 168.561H168.751V181.592H185.047V168.561Z" fill="#5781BA"/>
<path d="M142.412 187.104H126.117V200.134H142.412V187.104Z" fill="#5781BA"/>
<path d="M111.66 177.58H218" stroke="#211E59" stroke-width="5.36285" stroke-miterlimit="10"/>
<path d="M111.66 210.558H218" stroke="#211E59" stroke-width="5.36285" stroke-miterlimit="10"/>
<path d="M166.629 150V177.58" stroke="#211E59" stroke-width="5.36285" stroke-miterlimit="10"/>
<path d="M166.629 209.209V233.209" stroke="#211E59" stroke-width="5.36285" stroke-miterlimit="10"/>
<path d="M132.466 178.03V209.209" stroke="#211E59" stroke-width="5.36285" stroke-miterlimit="10"/>
<path d="M198.512 178.03V209.209" stroke="#211E59" stroke-width="5.36285" stroke-miterlimit="10"/>
<path d="M218 150H111.66V233.209H218V150Z" stroke="#211E59" stroke-width="5.36285" stroke-miterlimit="10"/>
<path d="M25.0005 7.03467H19.9658V12.0688H25.0005V7.03467Z" fill="#231F20"/>
<path d="M30.0347 7.03467H25V12.0688H30.0347V7.03467Z" fill="#231F20"/>
<path d="M35.0688 7.03467H30.0347V12.0688H35.0688V7.03467Z" fill="#231F20"/>
<path d="M40.104 7.03467H35.0693V12.0688H40.104V7.03467Z" fill="#231F20"/>
<path d="M45.1377 7.03467H40.1035V12.0688H45.1377V7.03467Z" fill="#231F20"/>
<path d="M35.0688 42.2759H30.0347V47.3106H35.0688V42.2759Z" fill="#FDEADD"/>
<path d="M40.104 42.2759H35.0693V47.3106H40.104V42.2759Z" fill="#FDEADD"/>
<path d="M25.0005 12.0693H19.9658V17.104H25.0005V12.0693Z" fill="#231F20"/>
<path d="M19.9653 12.0693H14.9312V17.104H19.9653V12.0693Z" fill="#231F20"/>
<path d="M30.0347 12.0693H25V17.104H30.0347V12.0693Z" fill="#231F20"/>
<path d="M35.0688 12.0693H30.0347V17.104H35.0688V12.0693Z" fill="#231F20"/>
<path d="M40.104 12.0693H35.0693V17.104H40.104V12.0693Z" fill="#231F20"/>
<path d="M45.1377 12.0693H40.1035V17.104H45.1377V12.0693Z" fill="#FDEADD"/>
<path d="M50.1724 12.0693H45.1377V17.104H50.1724V12.0693Z" fill="#FDEADD"/>
<path d="M25.0005 17.1035H19.9658V22.1382H25.0005V17.1035Z" fill="#FDEADD"/>
<path d="M30.0347 17.1035H25V22.1382H30.0347V17.1035Z" fill="#FDEADD"/>
<path d="M35.0688 17.1035H30.0347V22.1382H35.0688V17.1035Z" fill="#FDEADD"/>
<path d="M40.104 17.1035H35.0693V22.1382H40.104V17.1035Z" fill="#231F20"/>
<path d="M45.1377 17.1035H40.1035V22.1382H45.1377V17.1035Z" fill="#231F20"/>
<path d="M50.1724 17.1035H45.1377V22.1382H50.1724V17.1035Z" fill="#231F20"/>
<path d="M25.0005 22.1382H19.9658V27.1723H25.0005V22.1382Z" fill="#FDEADD"/>
<path d="M30.0347 22.1382H25V27.1723H30.0347V22.1382Z" fill="#FDEADD"/>
<path d="M35.0688 22.1382H30.0347V27.1723H35.0688V22.1382Z" fill="#FDEADD"/>
<path d="M40.104 22.1382H35.0693V27.1723H40.104V22.1382Z" fill="#FDEADD"/>
<path d="M45.1377 22.1382H40.1035V27.1723H45.1377V22.1382Z" fill="#FDEADD"/>
<path d="M50.1724 22.1382H45.1377V27.1723H50.1724V22.1382Z" fill="#FDEADD"/>
<path d="M25.0005 27.1724H19.9658V32.207H25.0005V27.1724Z" fill="#FDEADD"/>
<path d="M19.9653 27.1724H14.9312V32.207H19.9653V27.1724Z" fill="#F2D6C4"/>
<path d="M30.0347 27.1724H25V32.207H30.0347V27.1724Z" fill="#231F20"/>
<path d="M35.0688 27.1724H30.0347V32.207H35.0688V27.1724Z" fill="#FDEADD"/>
<path d="M40.104 27.1724H35.0693V32.207H40.104V27.1724Z" fill="#FDEADD"/>
<path d="M45.1377 27.1724H40.1035V32.207H45.1377V27.1724Z" fill="#FDEADD"/>
<path d="M50.1724 27.1724H45.1377V32.207H50.1724V27.1724Z" fill="#FDEADD"/>
<path d="M25.0005 37.2412H19.9658V42.2759H25.0005V37.2412Z" fill="#FDEADD"/>
<path d="M30.0347 37.2412H25V42.2759H30.0347V37.2412Z" fill="#FDEADD"/>
<path d="M35.0688 37.2412H30.0347V42.2759H35.0688V37.2412Z" fill="#FDEADD"/>
<path d="M40.104 37.2412H35.0693V42.2759H40.104V37.2412Z" fill="#FDEADD"/>
<path d="M45.1377 37.2412H40.1035V42.2759H45.1377V37.2412Z" fill="#FDEADD"/>
<path d="M50.1724 37.2412H45.1377V42.2759H50.1724V37.2412Z" fill="#FDEADD"/>
<path d="M50.1724 7.03467H45.1377V12.0688H50.1724V7.03467Z" fill="#231F20"/>
<path d="M55.207 12.0693H50.1724V17.104H55.207V12.0693Z" fill="#231F20"/>
<path d="M45.1377 22.1382H40.1035V27.1723H45.1377V22.1382Z" fill="#FDEADD"/>
<path d="M50.1724 22.1382H45.1377V27.1723H50.1724V22.1382Z" fill="#FDEADD"/>
<path d="M45.1377 27.1724H40.1035V32.207H45.1377V27.1724Z" fill="#231F20"/>
<path d="M25.0005 2H19.9658V7.03468H25.0005V2Z" fill="#231F20"/>
<path d="M30.0347 2H25V7.03468H30.0347V2Z" fill="#231F20"/>
<path d="M35.0688 2H30.0347V7.03468H35.0688V2Z" fill="#231F20"/>
<path d="M40.104 2H35.0693V7.03468H40.104V2Z" fill="#231F20"/>
<path d="M45.1377 2H40.1035V7.03468H45.1377V2Z" fill="#231F20"/>
<path d="M19.9653 7.03467H14.9312V12.0688H19.9653V7.03467Z" fill="#231F20"/>
<path d="M55.207 12.0693H50.1724V17.104H55.207V12.0693Z" fill="#231F20"/>
<path d="M45.1377 17.1035H40.1035V22.1382H45.1377V17.1035Z" fill="#231F20"/>
<path d="M50.1724 17.1035H45.1377V22.1382H50.1724V17.1035Z" fill="#FDEADD"/>
<path d="M45.1377 2H40.1035V7.03468H45.1377V2Z" fill="#231F20"/>
<path d="M50.1724 2H45.1377V7.03468H50.1724V2Z" fill="#231F20"/>
<path d="M55.207 7.03467H50.1724V12.0688H55.207V7.03467Z" fill="#231F20"/>
<path d="M45.1377 52.3447H40.1035V57.3794H45.1377V52.3447Z" fill="#231F20"/>
<path d="M19.9653 52.3447H14.9312V57.3794H19.9653V52.3447Z" fill="#5B5355"/>
<path d="M55.207 52.3447H50.1724V57.3794H55.207V52.3447Z" fill="#5B5355"/>
<path d="M45.1377 57.3794H40.1035V62.4141H45.1377V57.3794Z" fill="#231F20"/>
<path d="M45.1377 62.4141H40.1035V67.4482H45.1377V62.4141Z" fill="#231F20"/>
<path d="M45.1377 67.4482H40.1035V72.4829H45.1377V67.4482Z" fill="#231F20"/>
<path d="M45.1377 72.4829H40.1035V77.5171H45.1377V72.4829Z" fill="#231F20"/>
<path d="M45.1377 77.5171H40.1035V82.5518H45.1377V77.5171Z" fill="#231F20"/>
<path d="M45.1377 82.5518H40.1035V87.5864H45.1377V82.5518Z" fill="#231F20"/>
<path d="M25.0005 87.5864H19.9658V92.6206H25.0005V87.5864Z" fill="#3368A5"/>
<path d="M30.0347 87.5864H25V92.6206H30.0347V87.5864Z" fill="#3368A5"/>
<path d="M35.0688 87.5864H30.0347V92.6206H35.0688V87.5864Z" fill="#3368A5"/>
<path d="M40.104 87.5864H35.0693V92.6206H40.104V87.5864Z" fill="#3368A5"/>
<path d="M45.1377 87.5864H40.1035V92.6206H45.1377V87.5864Z" fill="#3368A5"/>
<path d="M45.1377 87.5864H40.1035V92.6206H45.1377V87.5864Z" fill="#3368A5"/>
<path d="M50.1724 87.5864H45.1377V92.6206H50.1724V87.5864Z" fill="#3368A5"/>
<path d="M25.0005 92.6206H19.9658V97.6553H25.0005V92.6206Z" fill="#3368A5"/>
<path d="M30.0347 92.6206H25V97.6553H30.0347V92.6206Z" fill="#3368A5"/>
<path d="M35.0688 92.6206H30.0347V97.6553H35.0688V92.6206Z" fill="#3368A5"/>
<path d="M40.104 92.6206H35.0693V97.6553H40.104V92.6206Z" fill="#3368A5"/>
<path d="M45.1377 92.6206H40.1035V97.6553H45.1377V92.6206Z" fill="#3368A5"/>
<path d="M45.1377 92.6206H40.1035V97.6553H45.1377V92.6206Z" fill="#3368A5"/>
<path d="M50.1724 92.6206H45.1377V97.6553H50.1724V92.6206Z" fill="#3368A5"/>
<path d="M25.0005 97.6553H19.9658V102.689H25.0005V97.6553Z" fill="#3368A5"/>
<path d="M30.0347 97.6553H25V102.689H30.0347V97.6553Z" fill="#3368A5"/>
<path d="M45.1377 97.6553H40.1035V102.689H45.1377V97.6553Z" fill="#3368A5"/>
<path d="M45.1377 97.6553H40.1035V102.689H45.1377V97.6553Z" fill="#3368A5"/>
<path d="M50.1724 97.6553H45.1377V102.689H50.1724V97.6553Z" fill="#3368A5"/>
<path d="M25.0005 102.689H19.9658V107.724H25.0005V102.689Z" fill="#3368A5"/>
<path d="M30.0347 102.689H25V107.724H30.0347V102.689Z" fill="#3368A5"/>
<path d="M45.1377 102.689H40.1035V107.724H45.1377V102.689Z" fill="#3368A5"/>
<path d="M45.1377 102.689H40.1035V107.724H45.1377V102.689Z" fill="#3368A5"/>
<path d="M50.1724 102.689H45.1377V107.724H50.1724V102.689Z" fill="#3368A5"/>
<path d="M25.0005 107.724H19.9658V112.759H25.0005V107.724Z" fill="#3368A5"/>
<path d="M30.0347 107.724H25V112.759H30.0347V107.724Z" fill="#3368A5"/>
<path d="M45.1377 107.724H40.1035V112.759H45.1377V107.724Z" fill="#3368A5"/>
<path d="M45.1377 107.724H40.1035V112.759H45.1377V107.724Z" fill="#3368A5"/>
<path d="M50.1724 107.724H45.1377V112.759H50.1724V107.724Z" fill="#3368A5"/>
<path d="M25.0005 112.759H19.9658V117.793H25.0005V112.759Z" fill="#3368A5"/>
<path d="M30.0347 112.759H25V117.793H30.0347V112.759Z" fill="#3368A5"/>
<path d="M45.1377 112.759H40.1035V117.793H45.1377V112.759Z" fill="#3368A5"/>
<path d="M45.1377 112.759H40.1035V117.793H45.1377V112.759Z" fill="#3368A5"/>
<path d="M50.1724 112.759H45.1377V117.793H50.1724V112.759Z" fill="#3368A5"/>
<path d="M25.0005 117.793H19.9658V122.828H25.0005V117.793Z" fill="#3368A5"/>
<path d="M30.0347 117.793H25V122.828H30.0347V117.793Z" fill="#3368A5"/>
<path d="M45.1377 117.793H40.1035V122.828H45.1377V117.793Z" fill="#3368A5"/>
<path d="M45.1377 117.793H40.1035V122.828H45.1377V117.793Z" fill="#3368A5"/>
<path d="M50.1724 117.793H45.1377V122.828H50.1724V117.793Z" fill="#3368A5"/>
<path d="M25.0005 122.828H19.9658V127.862H25.0005V122.828Z" fill="#3368A5"/>
<path d="M30.0347 122.828H25V127.862H30.0347V122.828Z" fill="#3368A5"/>
<path d="M45.1377 122.828H40.1035V127.862H45.1377V122.828Z" fill="#3368A5"/>
<path d="M45.1377 122.828H40.1035V127.862H45.1377V122.828Z" fill="#3368A5"/>
<path d="M50.1724 122.828H45.1377V127.862H50.1724V122.828Z" fill="#3368A5"/>
<path d="M25.0005 127.862H19.9658V132.896H25.0005V127.862Z" fill="#3368A5"/>
<path d="M30.0347 127.862H25V132.896H30.0347V127.862Z" fill="#3368A5"/>
<path d="M45.1377 127.862H40.1035V132.896H45.1377V127.862Z" fill="#3368A5"/>
<path d="M45.1377 127.862H40.1035V132.896H45.1377V127.862Z" fill="#3368A5"/>
<path d="M50.1724 127.862H45.1377V132.896H50.1724V127.862Z" fill="#3368A5"/>
<path d="M25.0005 132.896H19.9658V137.931H25.0005V132.896Z" fill="#3368A5"/>
<path d="M30.0347 132.896H25V137.931H30.0347V132.896Z" fill="#3368A5"/>
<path d="M45.1377 132.896H40.1035V137.931H45.1377V132.896Z" fill="#3368A5"/>
<path d="M45.1377 132.896H40.1035V137.931H45.1377V132.896Z" fill="#3368A5"/>
<path d="M50.1724 132.896H45.1377V137.931H50.1724V132.896Z" fill="#3368A5"/>
<path d="M25.0005 137.931H19.9658V142.965H25.0005V137.931Z" fill="#3368A5"/>
<path d="M30.0347 137.931H25V142.965H30.0347V137.931Z" fill="#3368A5"/>
<path d="M25.0005 142.965H19.9658V148H25.0005V142.965Z" fill="#231F20"/>
<path d="M19.9653 142.965H14.9312V148H19.9653V142.965Z" fill="#231F20"/>
<path d="M30.0347 142.965H25V148H30.0347V142.965Z" fill="#231F20"/>
<path d="M50.1724 142.965H45.1377V148H50.1724V142.965Z" fill="#231F20"/>
<path d="M45.1377 142.965H40.1035V148H45.1377V142.965Z" fill="#231F20"/>
<path d="M55.207 142.965H50.1724V148H55.207V142.965Z" fill="#231F20"/>
<path d="M45.1377 137.931H40.1035V142.965H45.1377V137.931Z" fill="#3368A5"/>
<path d="M45.1377 137.931H40.1035V142.965H45.1377V137.931Z" fill="#3368A5"/>
<path d="M50.1724 137.931H45.1377V142.965H50.1724V137.931Z" fill="#3368A5"/>
<path d="M19.9653 57.3794H14.9312V62.4141H19.9653V57.3794Z" fill="#5B5355"/>
<path d="M19.9653 62.4141H14.9312V67.4482H19.9653V62.4141Z" fill="#5B5355"/>
<path d="M19.9653 67.4482H14.9312V72.4829H19.9653V67.4482Z" fill="#FDEADD"/>
<path d="M19.9653 72.4829H14.9312V77.5171H19.9653V72.4829Z" fill="#FDEADD"/>
<path d="M19.9653 77.5171H14.9312V82.5518H19.9653V77.5171Z" fill="#FDEADD"/>
<path d="M19.9653 82.5518H14.9312V87.5864H19.9653V82.5518Z" fill="#FDEADD"/>
<path d="M19.9653 87.5864H14.9312V92.6206H19.9653V87.5864Z" fill="#FDEADD"/>
<path d="M19.9653 92.6206H14.9312V97.6553H19.9653V92.6206Z" fill="#FDEADD"/>
<path d="M19.9653 97.6553H14.9312V102.689H19.9653V97.6553Z" fill="#FDEADD"/>
<path d="M55.207 67.4482H50.1724V72.4829H55.207V67.4482Z" fill="#FDEADD"/>
<path d="M55.207 72.4829H50.1724V77.5171H55.207V72.4829Z" fill="#FDEADD"/>
<path d="M55.207 77.5171H50.1724V82.5518H55.207V77.5171Z" fill="#FDEADD"/>
<path d="M55.207 82.5518H50.1724V87.5864H55.207V82.5518Z" fill="#FDEADD"/>
<path d="M55.207 87.5864H50.1724V92.6206H55.207V87.5864Z" fill="#FDEADD"/>
<path d="M55.207 92.6206H50.1724V97.6553H55.207V92.6206Z" fill="#FDEADD"/>
<path d="M55.207 97.6553H50.1724V102.689H55.207V97.6553Z" fill="#FDEADD"/>
<path d="M55.207 57.3794H50.1724V62.4141H55.207V57.3794Z" fill="#5B5355"/>
<path d="M55.207 62.4141H50.1724V67.4482H55.207V62.4141Z" fill="#5B5355"/>
<path d="M50.1724 27.1724H45.1377V32.207H50.1724V27.1724Z" fill="#FDEADD"/>
<path d="M55.207 27.1724H50.1724V32.207H55.207V27.1724Z" fill="#F2D6C4"/>
<path d="M25.0005 32.207H19.9658V37.2412H25.0005V32.207Z" fill="#FDEADD"/>
<path d="M30.0347 32.207H25V37.2412H30.0347V32.207Z" fill="#FDEADD"/>
<path d="M35.0688 32.207H30.0347V37.2412H35.0688V32.207Z" fill="#FDEADD"/>
<path d="M40.104 32.207H35.0693V37.2412H40.104V32.207Z" fill="#FDEADD"/>
<path d="M45.1377 32.207H40.1035V37.2412H45.1377V32.207Z" fill="#FDEADD"/>
<path d="M50.1724 32.207H45.1377V37.2412H50.1724V32.207Z" fill="#FDEADD"/>
<path d="M45.1377 32.207H40.1035V37.2412H45.1377V32.207Z" fill="#FDEADD"/>
<path d="M50.1724 32.207H45.1377V37.2412H50.1724V32.207Z" fill="#FDEADD"/>
<path d="M45.1377 47.3105H40.1035V52.3447H45.1377V47.3105Z" fill="#231F20"/>
<path d="M50.1724 47.3105H45.1377V52.3447H50.1724V47.3105Z" fill="#231F20"/>
<path d="M25.0005 52.3447H19.9658V57.3794H25.0005V52.3447Z" fill="#211E59"/>
<path d="M30.0347 52.3447H25V57.3794H30.0347V52.3447Z" fill="#211E59"/>
<path d="M35.0688 52.3447H30.0347V57.3794H35.0688V52.3447Z" fill="#211E59"/>
<path d="M40.104 52.3447H35.0693V57.3794H40.104V52.3447Z" fill="#211E59"/>
<path d="M45.1377 52.3447H40.1035V57.3794H45.1377V52.3447Z" fill="#211E59"/>
<path d="M50.1724 52.3447H45.1377V57.3794H50.1724V52.3447Z" fill="#211E59"/>
<path d="M25.0005 57.3794H19.9658V62.4141H25.0005V57.3794Z" fill="#211E59"/>
<path d="M30.0347 57.3794H25V62.4141H30.0347V57.3794Z" fill="#211E59"/>
<path d="M35.0688 57.3794H30.0347V62.4141H35.0688V57.3794Z" fill="#211E59"/>
<path d="M40.104 57.3794H35.0693V62.4141H40.104V57.3794Z" fill="#211E59"/>
<path d="M45.1377 57.3794H40.1035V62.4141H45.1377V57.3794Z" fill="#211E59"/>
<path d="M50.1724 57.3794H45.1377V62.4141H50.1724V57.3794Z" fill="#211E59"/>
<path d="M25.0005 62.4141H19.9658V67.4482H25.0005V62.4141Z" fill="#211E59"/>
<path d="M30.0347 62.4141H25V67.4482H30.0347V62.4141Z" fill="#211E59"/>
<path d="M35.0688 62.4141H30.0347V67.4482H35.0688V62.4141Z" fill="#211E59"/>
<path d="M40.104 62.4141H35.0693V67.4482H40.104V62.4141Z" fill="#211E59"/>
<path d="M45.1377 62.4141H40.1035V67.4482H45.1377V62.4141Z" fill="#211E59"/>
<path d="M50.1724 62.4141H45.1377V67.4482H50.1724V62.4141Z" fill="#211E59"/>
<path d="M25.0005 67.4482H19.9658V72.4829H25.0005V67.4482Z" fill="#211E59"/>
<path d="M30.0347 67.4482H25V72.4829H30.0347V67.4482Z" fill="#211E59"/>
<path d="M35.0688 67.4482H30.0347V72.4829H35.0688V67.4482Z" fill="#211E59"/>
<path d="M40.104 67.4482H35.0693V72.4829H40.104V67.4482Z" fill="#211E59"/>
<path d="M45.1377 67.4482H40.1035V72.4829H45.1377V67.4482Z" fill="#211E59"/>
<path d="M50.1724 67.4482H45.1377V72.4829H50.1724V67.4482Z" fill="#211E59"/>
<path d="M25.0005 72.4829H19.9658V77.5171H25.0005V72.4829Z" fill="#211E59"/>
<path d="M30.0347 72.4829H25V77.5171H30.0347V72.4829Z" fill="#211E59"/>
<path d="M35.0688 72.4829H30.0347V77.5171H35.0688V72.4829Z" fill="#211E59"/>
<path d="M40.104 72.4829H35.0693V77.5171H40.104V72.4829Z" fill="#211E59"/>
<path d="M45.1377 72.4829H40.1035V77.5171H45.1377V72.4829Z" fill="#211E59"/>
<path d="M50.1724 72.4829H45.1377V77.5171H50.1724V72.4829Z" fill="#211E59"/>
<path d="M25.0005 77.5171H19.9658V82.5518H25.0005V77.5171Z" fill="#211E59"/>
<path d="M30.0347 77.5171H25V82.5518H30.0347V77.5171Z" fill="#211E59"/>
<path d="M35.0688 77.5171H30.0347V82.5518H35.0688V77.5171Z" fill="#211E59"/>
<path d="M40.104 77.5171H35.0693V82.5518H40.104V77.5171Z" fill="#211E59"/>
<path d="M45.1377 77.5171H40.1035V82.5518H45.1377V77.5171Z" fill="#211E59"/>
<path d="M50.1724 77.5171H45.1377V82.5518H50.1724V77.5171Z" fill="#211E59"/>
<path d="M25.0005 82.5518H19.9658V87.5864H25.0005V82.5518Z" fill="#211E59"/>
<path d="M30.0347 82.5518H25V87.5864H30.0347V82.5518Z" fill="#211E59"/>
<path d="M35.0688 82.5518H30.0347V87.5864H35.0688V82.5518Z" fill="#211E59"/>
<path d="M40.104 82.5518H35.0693V87.5864H40.104V82.5518Z" fill="#211E59"/>
<path d="M45.1377 82.5518H40.1035V87.5864H45.1377V82.5518Z" fill="#211E59"/>
<path d="M50.1724 82.5518H45.1377V87.5864H50.1724V82.5518Z" fill="#211E59"/>
<path d="M25.0005 47.3105H19.9658V52.3447H25.0005V47.3105Z" fill="#211E59"/>
<path d="M30.0347 47.3105H25V52.3447H30.0347V47.3105Z" fill="#211E59"/>
<path d="M35.0688 47.3105H30.0347V52.3447H35.0688V47.3105Z" fill="#211E59"/>
<path d="M40.104 47.3105H35.0693V52.3447H40.104V47.3105Z" fill="#211E59"/>
<path d="M45.1377 47.3105H40.1035V52.3447H45.1377V47.3105Z" fill="#211E59"/>
<path d="M50.1724 47.3105H45.1377V52.3447H50.1724V47.3105Z" fill="#211E59"/>
<path d="M46.9817 28V25H43.9862H40.9912H37.9959V28H35.0007H32.0043V25H29.0091H26.0138H22.9963V28H20V31H22.9963V34H26.0138H29.0091H32.0043V31H35.0007H37.9959V34H40.9912H43.9862H46.9817V31H50V28H46.9817Z" fill="#A5C8D4"/>
<path d="M623.985 142.426H620.237V146.174V149.922H623.985H627.733H631.481H635.229V146.174H631.481V142.426H627.733H623.985Z" fill="#231F20"/>
<path d="M608.992 142.426H605.244V146.174H601.496V149.922H605.244H608.992H612.74H616.488V146.174V142.426H612.74H608.992Z" fill="#231F20"/>
<path d="M623.985 119.938H620.237V123.686V127.433V131.182V134.93V138.678V142.426H623.985H627.733H631.481V138.678V134.93V131.182V127.433V123.686V119.938H627.733H623.985Z" fill="#F0D9DE"/>
<path d="M608.992 119.938H605.244V123.686V127.433V131.182V134.93V138.678V142.426H608.992H612.74H616.488V138.678V134.93V131.182V127.433V123.686V119.938H612.74H608.992Z" fill="#F0D9DE"/>
<path d="M631.481 97.4496H627.733V93.7016V91.8505V90.0023V89.9536H623.985H620.237H616.488H612.74H608.992H605.244V93.7016H608.992V97.4496V101.198H605.244H601.496V104.946V108.694H597.748V112.442V116.19H594V119.938H597.748H601.496H605.244H608.992H612.74H616.488H620.237H623.985H627.733H631.481H635.229H638.977H642.725V116.19H638.977V112.442V108.694H635.229V104.946V101.198H631.481V97.4496Z" fill="#211E59"/>
<path d="M608.992 97.4496H605.244V101.198H608.992V97.4496Z" fill="#211E59"/>
<path d="M605.244 97.4496V93.7016V89.9536V86.2051V82.457V78.709V74.9605V71.2125V67.4649V63.7169H601.496H597.748V67.4649V71.2125V74.9605V78.709V82.457V86.2051V89.9536V93.7016H594V97.4496H597.748V101.198H601.496H605.244V97.4496Z" fill="#F0D9DE"/>
<path d="M608.992 93.7017H605.244V97.4497H608.992V93.7017Z" fill="#EFD8DD"/>
<path d="M627.733 91.8505L627.782 93.7016L627.784 93.7508L629.63 93.7016L631.481 93.652L631.53 93.6505L631.481 91.8043L631.431 89.9536H629.575L627.733 90.0023V91.8505Z" fill="#211E59"/>
<path d="M631.481 63.7169V67.4649V71.2125V74.9605V78.709V82.457V86.2051V89.9536V91.8042L631.53 93.6505L631.481 93.6519V93.7016H629.63L627.784 93.7508L627.782 93.7016H627.733V97.4496H631.481V101.198H635.229H638.977V97.4496H642.725V93.7016H638.977V89.9536V86.2051V82.457V78.709V74.9605V71.2125V67.4649V63.7169H635.229H631.481Z" fill="#F0D9DE"/>
<path d="M616.488 56.2208H612.74H608.992H605.244H601.496H597.748V59.9689V63.7169H601.496H605.244V67.4649V71.2124V74.9605V78.709V82.457V86.205V89.9536H608.992H612.74H616.488H620.237H623.985H627.733H629.575H631.431H631.481V86.205V82.457V78.709V74.9605V71.2124V67.4649V63.7169H635.229H638.977V59.9689V56.2208H635.229H631.481H627.733H623.985H620.237H616.488Z" fill="#487EA4"/>
<path d="M608.992 48.7247H605.244V44.9762H601.496V41.2282V37.4802H597.748V33.7322V29.9841H594V33.7322V37.4802V41.2282V44.9762V48.7247V52.4728H597.748H601.496H605.244H608.992H612.74V48.7247H608.992Z" fill="#E2BF10"/>
<path d="M616.488 41.2283H612.74V44.9763H616.488H620.237H623.985V41.2283H620.237H616.488Z" fill="#A2112A"/>
<path d="M638.977 37.4803H635.229V41.2283V44.9764H631.481V48.7249H627.733H623.985V52.4729H627.733H631.481H635.229H638.977H642.725V48.7249V44.9764V41.2283V37.4803V33.7323H638.977V37.4803Z" fill="#E2BF10"/>
<path d="M642.725 29.9841H638.977V33.7322H642.725V29.9841Z" fill="#E2BF10"/>
<path d="M627.733 29.9841H623.985V33.7322H627.733V29.9841Z" fill="#231F20"/>
<path d="M612.74 29.9841H608.992V33.7322H612.74V29.9841Z" fill="#231F20"/>
<path d="M635.229 26.2362H631.481H627.733V22.4882H623.985V26.2362H620.237H616.489H612.741H608.993H605.245H601.497H597.749H594V29.9842H597.749V33.7322V37.4803H601.497V41.2283V44.9763H605.245V48.7248H608.993H612.741V52.4728V56.2209H616.489H620.237H623.985V52.4728V48.7248H627.733H631.481V44.9763H635.229V41.2283V37.4803H638.977V33.7322V29.9842H642.725V26.2362H638.977H635.229ZM608.992 33.7322V29.9842H612.74V33.7322H608.992ZM623.985 44.9763H620.237H616.489H612.741V41.2283H616.489H620.237H623.985V44.9763ZM627.733 33.7322H623.985V29.9842H627.733V33.7322Z" fill="#F0D9DE"/>
<path d="M638.977 18.7401V14.9921V11.2446V7.49605H635.229V3.74802H631.481H627.733V0H623.985H620.237H616.488H612.74H608.992V3.74802H605.244H601.496V7.49605H597.748V11.2446V14.9921V18.7401H594V22.4882V26.2362H597.748H601.496H605.244H608.992H612.74H616.488H620.237H623.985V22.4882H627.733V26.2362H631.481H635.229H638.977H642.725V22.4882V18.7401H638.977Z" fill="#E2BF10"/>
<path d="M635.076 30.3333V26H631.182H627.289H623.395V30.3333H619.501H615.606V26H611.712H607.818H603.895V30.3333H600V34.6667H603.895V39H607.818H611.712H615.606V34.6667H619.501H623.395V39H627.289H631.182H635.076V34.6667H639V30.3333H635.076Z" fill="#A5C8D4"/>
</svg>
